<?xml version="1.0" encoding="UTF-8" standalone="no"?>
<svg width="512" height="512" viewBox="0 0 512 512" xmlns="http://www.w3.org/2000/svg">
  <rect width="512" height="512" rx="64" fill="#1a1a1a"/>
  
  <!-- Stylized G for Gorilla -->
  <path d="M256,96 C367.9,96 459,187.1 459,299 C459,410.9 367.9,502 256,502 C144.1,502 53,410.9 53,299 C53,224.1 93.5,158.9 153,124 L153,180 C118.1,209.6 96,251.6 96,299 C96,387 168,459 256,459 C344,459 416,387 416,299 C416,211 344,139 256,139 C222,139 190.9,150.5 166,169 L208,169 L208,212 L98,212 L98,102 L141,102 L141,144 C171.4,114.7 211.8,96 256,96 Z" fill="#f5a742"/>
  
  <!-- Smoke effect -->
  <g opacity="0.7">
    <path d="M170,96 Q190,76 210,96 T250,96 T290,96 T330,96" fill="none" stroke="#ffffff" stroke-width="8"/>
    <path d="M190,76 Q210,56 230,76 T270,76 T310,76" fill="none" stroke="#ffffff" stroke-width="6"/>
    <path d="M210,56 Q230,36 250,56 T290,56" fill="none" stroke="#ffffff" stroke-width="4"/>
  </g>
  
  <!-- Grill marks -->
  <g transform="translate(156, 350)">
    <rect x="0" y="0" width="200" height="12" rx="6" fill="#d35400"/>
    <rect x="0" y="32" width="200" height="12" rx="6" fill="#d35400"/>
    <rect x="0" y="64" width="200" height="12" rx="6" fill="#d35400"/>
  </g>
</svg>