<?xml version="1.0" encoding="UTF-8"?>
<svg width="144" height="144" viewBox="0 0 144 144" fill="none" xmlns="http://www.w3.org/2000/svg">
  <!-- Background -->
  <rect width="144" height="144" rx="24" fill="#1E1E1E"/>
  
  <!-- Stylized 'G' for Gorilla -->
  <path d="M72 30C48.804 30 30 48.804 30 72C30 95.196 48.804 114 72 114C95.196 114 114 95.196 114 72C114 48.804 95.196 30 72 30ZM72 42C88.569 42 102 55.431 102 72C102 88.569 88.569 102 72 102C55.431 102 42 88.569 42 72C42 55.431 55.431 42 72 42Z" fill="#FF6B00"/>
  
  <!-- Flame accent -->
  <path d="M72 54C67.5 54 64 61 64 66C64 71 68 76 72 76C76 76 80 71 80 66C80 61 76.5 54 72 54ZM72 84C66 84 59 82 59 76C59 76 64 78 72 78C80 78 85 76 85 76C85 82 78 84 72 84Z" fill="#FF6B00"/>
</svg>