<?xml version="1.0" encoding="UTF-8" standalone="no"?>
<svg width="1200" height="630" viewBox="0 0 1200 630" xmlns="http://www.w3.org/2000/svg">
  <rect width="1200" height="630" rx="20" fill="#1a1a1a"/>
  
  <!-- Smoke effect background -->
  <g opacity="0.1">
    <path d="M300,100 Q500,50 700,100 T1100,100" fill="none" stroke="#ffffff" stroke-width="30"/>
    <path d="M200,200 Q400,150 600,200 T1000,200" fill="none" stroke="#ffffff" stroke-width="25"/>
    <path d="M100,300 Q300,250 500,300 T900,300" fill="none" stroke="#ffffff" stroke-width="20"/>
  </g>
  
  <!-- Stylized G for Gorilla -->
  <g transform="translate(200, 250) scale(0.5)">
    <path d="M256,96 C367.9,96 459,187.1 459,299 C459,410.9 367.9,502 256,502 C144.1,502 53,410.9 53,299 C53,224.1 93.5,158.9 153,124 L153,180 C118.1,209.6 96,251.6 96,299 C96,387 168,459 256,459 C344,459 416,387 416,299 C416,211 344,139 256,139 C222,139 190.9,150.5 166,169 L208,169 L208,212 L98,212 L98,102 L141,102 L141,144 C171.4,114.7 211.8,96 256,96 Z" fill="#f5a742"/>
    
    <!-- Smoke effect -->
    <g opacity="0.7">
      <path d="M170,96 Q190,76 210,96 T250,96 T290,96 T330,96" fill="none" stroke="#ffffff" stroke-width="8"/>
      <path d="M190,76 Q210,56 230,76 T270,76 T310,76" fill="none" stroke="#ffffff" stroke-width="6"/>
      <path d="M210,56 Q230,36 250,56 T290,56" fill="none" stroke="#ffffff" stroke-width="4"/>
    </g>
    
    <!-- Grill marks -->
    <g transform="translate(156, 350)">
      <rect x="0" y="0" width="200" height="12" rx="6" fill="#d35400"/>
      <rect x="0" y="32" width="200" height="12" rx="6" fill="#d35400"/>
      <rect x="0" y="64" width="200" height="12" rx="6" fill="#d35400"/>
    </g>
  </g>
  
  <!-- Text -->
  <text x="600" y="340" font-family="Arial, sans-serif" font-size="72" font-weight="bold" fill="white" text-anchor="middle">Gorilla Smoke &amp; Grill</text>
  <text x="600" y="420" font-family="Arial, sans-serif" font-size="36" fill="#f5a742" text-anchor="middle">Authentic BBQ in Laredo, TX</text>
  
  <!-- Grill flame accent -->
  <g transform="translate(750, 250) scale(0.2)">
    <path d="M310.5,87.5 C327.5,132.5 299,172 280,197.5 C335,172 357.5,232.5 347.5,267.5 C400,242.5 400,305 387.5,335 C447.5,317.5 425,380 402.5,407.5 C480,402.5 442.5,472.5 402.5,487.5 C472.5,500 425,552.5 375,552.5 C437.5,585 355,620 310,605 C345,657.5 265,657.5 210.5,622.5 C217.5,675 120,657.5 82.5,605 C67.5,660 -17.5,627.5 15,552.5 C-35,560 -40,480 25,457.5 C-25,427.5 7.5,365 65,377.5 C25,335 75,267.5 125,292.5 C95,240 152.5,187.5 200,220 C192.5,157.5 255,127.5 285,170 C290,110 330,77.5 347.5,130 C375,75 415,60 440,110 C462.5,62.5 492.5,170 450,217.5 C522.5,200 492.5,285 425,290 C485,322.5 430,375 387.5,365 C430,407.5 355,437.5 325,402.5 C337.5,457.5 255,457.5 237.5,412.5 C217.5,467.5 145,442.5 145,385 C97.5,422.5 47.5,365 75,317.5 C30,330 15,247.5 80,240 C27.5,192.5 87.5,135 137.5,170 C112.5,115 180,75 227.5,125 C222.5,65 292.5,42.5 310.5,87.5 Z" fill="#d35400" fill-opacity="0.5"/>
    <path d="M240,152.5 C265,182.5 232.5,212.5 215,225 C255,215 262.5,252.5 250,270 C290,265 275,297.5 262.5,307.5 C307.5,312.5 285,345 260,347.5 C302.5,367.5 260,397.5 232.5,385 C267.5,417.5 210,422.5 195,402.5 C207.5,440 145,422.5 137.5,390 C132.5,430 77.5,402.5 97.5,355 C67.5,365 65,322.5 100,312.5 C72.5,287.5 105,255 130,267.5 C110,232.5 160,215 180,245 C177.5,200 217.5,197.5 227.5,220 C240,177.5 260,192.5 267.5,212.5 C290,175 322.5,192.5 312.5,227.5 C347.5,210 340,257.5 300,255 C332.5,275 297.5,307.5 275,292.5 C287.5,320 237.5,330 237.5,297.5 C225,327.5 187.5,310 192.5,280 C167.5,297.5 147.5,257.5 177.5,242.5 C152.5,232.5 167.5,192.5 195,197.5 C175,170 215,155 240,152.5 Z" fill="#f5a742"/>
  </g>
</svg>